<svg width="134" height="90" viewBox="0 0 134 90" fill="none" xmlns="http://www.w3.org/2000/svg">
<g clip-path="url(#clip0_1494_40029)">
<rect x="0.911011" y="0.552124" width="132.747" height="89.0216" fill="#FE7028"/>
<path d="M65.4322 26.1144C67.3593 25.7238 71.6311 27.2623 73.4035 28.1884C84.4929 33.9844 87.333 48.5929 79.2865 58.2028C76.3473 61.7128 71.011 64.8425 66.3495 65.0601C65.1588 65.1156 64.3855 64.6532 64.2542 63.4135C63.9252 60.3127 64.4748 56.7007 64.2435 53.5454C64.4163 51.8251 65.7579 51.9738 66.9859 51.4336C72.3582 49.0716 71.7844 40.8049 66.3397 39.4281C64.2397 38.8973 64.3477 40.8767 64.0093 42.219C62.8898 46.6625 59.4842 50.3468 55.0619 51.6578C53.5087 52.1183 51.5845 52.6529 51.2485 50.4717C51.4681 47.3131 50.9691 43.7915 51.2485 40.6767C51.319 39.8881 51.8088 39.1904 52.6157 39.0576C55.854 38.7863 59.6188 39.3922 62.7944 39.0497C63.5388 38.9695 64.1257 38.4461 64.2449 37.6999C64.5117 34.5293 63.8762 30.7383 64.2528 27.6408C64.3276 27.0269 64.7916 26.2435 65.4322 26.1139V26.1144Z" fill="#FF3724"/>
</g>
<defs>
<clipPath id="clip0_1494_40029">
<rect width="132.747" height="89.0216" fill="white" transform="translate(0.911011 0.552124)"/>
</clipPath>
</defs>
</svg>
