<svg width="134" height="62" viewBox="0 0 134 62" fill="none" xmlns="http://www.w3.org/2000/svg">
<path d="M133.458 0.352539H0.708298V61.3122H133.458V0.352539Z" fill="#FE7028"/>
<path d="M129.199 56.3188C129.218 56.3359 129.228 56.3657 129.248 56.3874C129.282 56.4228 129.346 56.4045 129.303 56.4822C129.239 56.5988 128.963 56.8811 128.857 56.9863C127.464 58.3522 125.14 58.9488 123.577 57.5098C123.544 57.5098 123.207 57.895 123.139 57.9475C123.118 57.9635 123.112 57.9887 123.075 57.9795L123.054 56.44L124.614 56.4617L124.101 56.9954C125.622 58.2036 127.741 57.3223 128.79 55.9268C128.916 56.0685 129.066 56.1874 129.199 56.3188Z" fill="#FF3724"/>
<path d="M129.937 51.3108C129.955 51.3005 129.977 51.3074 129.996 51.3063L130.018 52.8458L128.458 52.8241L128.97 52.3006C128.718 52.0732 128.387 51.8926 128.057 51.8046C126.645 51.4263 125.136 52.2218 124.3 53.3362L124.217 53.295L123.76 52.8321C124.991 51.0857 127.765 50.1678 129.495 51.7566C129.531 51.7566 129.835 51.4377 129.891 51.3828C129.91 51.3634 129.933 51.3143 129.937 51.312V51.3108Z" fill="#FF3724"/>
<path d="M123.95 53.9136L123.397 53.365C123.388 53.3135 123.648 53.0163 123.652 52.9295C123.684 52.9203 123.687 52.9386 123.706 52.9501C123.868 53.0609 124.045 53.3249 124.205 53.4564C124.128 53.613 124 53.7444 123.95 53.9136Z" fill="#FF3724"/>
<path d="M129.163 55.37C129.169 55.3734 129.225 55.466 129.248 55.4877C129.39 55.6203 129.549 55.7426 129.672 55.8969L129.419 56.3324C129.388 56.3404 129.383 56.3244 129.365 56.3118C129.204 56.201 129.029 55.9518 128.873 55.8215L129.118 55.3837C129.117 55.3632 129.155 55.3666 129.163 55.3711V55.37Z" fill="#FF3724"/>
<path d="M123.714 54.4927C123.682 54.5018 123.679 54.4847 123.661 54.4721C123.485 54.3498 123.305 54.0744 123.126 53.9372L123.287 53.552C123.319 53.5429 123.323 53.5612 123.341 53.5726C123.389 53.6058 123.831 54.0458 123.84 54.0801C123.862 54.1601 123.704 54.3853 123.714 54.4927Z" fill="#FF3724"/>
<path d="M129.754 55.1415C129.786 55.1735 129.821 55.2249 129.857 55.2638C129.887 55.2981 129.944 55.3027 129.944 55.3587L129.771 55.7119L129.247 55.2318C129.184 55.1507 129.352 54.8992 129.355 54.7918C129.387 54.7826 129.391 54.7998 129.409 54.8123C129.484 54.8649 129.676 55.0638 129.754 55.1404V55.1415Z" fill="#FF3724"/>
<path d="M129.983 54.978C129.806 54.8043 129.637 54.6203 129.453 54.4523L129.506 54.1094L130.136 54.7094C130.151 54.7426 130.094 54.9746 130.071 55.0078C130.048 55.0409 130.001 54.9963 129.982 54.9792L129.983 54.978Z" fill="#FF3724"/>
<path d="M123.565 55.1771L122.935 54.5782C122.906 54.5165 122.977 54.3199 123.022 54.2582C123.062 54.249 123.523 54.7519 123.598 54.8148C123.633 54.8891 123.569 55.0868 123.566 55.1783L123.565 55.1771Z" fill="#FF3724"/>
<path d="M130.117 53.8814C130.14 53.9054 130.268 54.0483 130.271 54.0597C130.279 54.0963 130.245 54.2586 130.221 54.3009L129.547 53.6494C129.478 53.5454 129.518 53.4139 129.483 53.2962C129.52 53.2871 129.525 53.3111 129.547 53.3282C129.695 53.4425 129.979 53.7362 130.116 53.8814H130.117Z" fill="#FF3724"/>
<path d="M123.586 55.9688C123.572 55.9837 123.482 55.9128 123.465 55.8968C123.356 55.7963 123.237 55.6488 123.127 55.5402C123.067 55.4808 122.829 55.2945 122.805 55.2408C122.793 55.2111 122.818 54.9916 122.849 54.9847C122.895 54.9745 123.452 55.5894 123.544 55.6568L123.585 55.9677L123.586 55.9688Z" fill="#FF3724"/>
<path d="M113.016 54.1997C112.796 52.3067 111.141 50.8755 109.233 50.9384C107.038 51.0104 105.394 52.948 105.679 55.1325C105.898 56.8083 107.263 58.14 108.943 58.3183C111.311 58.5698 113.291 56.5682 113.016 54.2008V54.1997ZM106.182 56.0378L106.16 55.9715C105.944 55.2342 105.858 54.4855 105.99 53.7962C106.173 53.068 106.586 52.4302 107.148 51.9672C107.684 51.5705 108.395 51.2962 109.072 51.1876C109.163 51.1807 109.254 51.1773 109.345 51.1773C110.476 51.1773 111.482 51.7237 112.114 52.5662C112.355 53.036 112.42 53.5653 112.395 54.1071C112.343 55.1919 111.752 55.9063 110.725 56.2161C110.314 56.3407 109.871 56.3899 109.441 56.3739L109.415 57.581L107.544 55.736L109.415 53.6556V54.8112L111.378 53.0383L109.427 51.2825L109.364 52.0769C108.405 52.1661 107.413 52.4907 106.787 53.2555C106.153 54.0305 106.03 55.1027 106.195 56.0675C106.191 56.0572 106.186 56.0481 106.182 56.0378Z" fill="#FF3724"/>
<path d="M119.223 50.9383C119.38 50.9646 119.522 51.0149 119.644 51.1189C119.92 51.3521 120.061 51.7133 120.25 52.0127L120.708 51.7247L119.843 53.2826H117.962L118.538 52.9648C118.542 52.958 118.538 52.9443 118.536 52.9363C118.512 52.8574 118.445 52.7317 118.409 52.6528C118.217 52.2459 117.978 51.8287 117.689 51.4835C117.521 51.2835 117.332 51.0938 117.112 50.9498C117.308 50.9418 117.504 50.9486 117.701 50.9463C117.714 50.9463 117.723 50.9383 117.725 50.9383C118.224 50.9338 118.724 50.9418 119.223 50.9383Z" fill="#FF3724"/>
<path d="M114.107 54.9038L114.727 53.6534L114.128 53.3174H115.933L116.809 54.9038L116.222 54.5575L115.646 55.7554L114.999 55.7473C114.651 55.6731 114.374 55.4182 114.205 55.1141L114.108 54.9198V54.905L114.107 54.9038Z" fill="#FF3724"/>
<path d="M121.739 54.94L121.717 55.0234C121.612 55.3446 121.139 55.7298 120.797 55.7481C120.757 55.7504 120.724 55.7412 120.69 55.7401C120.511 55.7401 120.33 55.7424 120.151 55.7401L119.347 54.2679L120.963 53.2896L121.739 54.8406V54.9412V54.94Z" fill="#FF3724"/>
<path d="M118.977 55.2788V55.8344H120.761C121.012 55.8126 121.25 55.7269 121.446 55.5669L121.594 55.4263C121.43 55.7612 121.289 56.1076 121.125 56.4425C120.889 56.9226 120.615 57.4073 120.086 57.6027C119.729 57.7353 119.354 57.7171 118.979 57.7159V58.3366C118.962 58.3412 118.967 58.3332 118.963 58.3275C118.949 58.3092 118.933 58.276 118.92 58.2555C118.644 57.7811 118.386 57.2941 118.109 56.8186L118.958 55.2902L118.979 55.2788H118.977Z" fill="#FF3724"/>
<path d="M117.536 55.8496V57.7138C117.536 57.7138 117.525 57.7263 117.521 57.7286L116.056 57.732C115.556 57.5903 115.19 57.1903 114.913 56.7708C114.635 56.3513 114.423 55.8633 114.185 55.4084C114.205 55.4027 114.225 55.4358 114.24 55.4472C114.397 55.5787 114.731 55.821 114.932 55.8438C115.005 55.8518 115.082 55.8358 115.155 55.8518H117.536V55.8496Z" fill="#FF3724"/>
<path d="M115.426 52.2999L116.247 51.0575C116.475 50.9672 116.723 50.9512 116.957 51.0312C117.327 51.1558 117.59 51.5032 117.81 51.8073L117.03 53.3023L115.427 52.2999H115.426Z" fill="#FF3724"/>
<path d="M18.4716 15.6533L17.6208 14.9777L18.4716 14.3022L17.6208 13.6266L18.4716 12.951L17.6208 12.2754L18.4716 11.5998V11.5793L17.6208 10.9243L18.4716 10.2693V10.2487L17.6208 9.57312L18.4716 8.89754L17.6208 8.22196L18.4716 7.54638L17.6208 6.87081L18.4716 6.19523L17.6208 5.51965L18.4716 4.84408L17.6208 4.1685L18.4716 3.49292H3.95438C4.8909 4.86579 5.51905 7.38521 5.51905 10.267C5.51905 13.1488 4.9046 15.6179 3.98407 16.9999H18.4716L17.6208 16.3243L18.4716 15.6487V15.6533Z" fill="#FF3724"/>
</svg>
