<svg width="134" height="40" viewBox="0 0 134 40" fill="none" xmlns="http://www.w3.org/2000/svg">
<mask id="mask0_1494_40200" style="mask-type:alpha" maskUnits="userSpaceOnUse" x="0" y="12" width="81" height="15">
<path d="M30.9818 12.9146C27.5881 12.8243 11.0887 13.1916 8.08001 14.1911C4.36133 15.4194 0.811129 17.1836 0.913423 19.9052C0.805112 22.6267 4.36133 24.3909 8.08001 25.6192C11.0887 26.6188 27.5881 26.986 30.9818 26.8957C34.3755 26.8054 37.3962 23.9755 37.3962 23.9755L38.3048 24.7462H80.7087V15.0641L38.3109 15.0641L37.4022 15.8349C37.4022 15.8349 34.3816 13.0049 30.9878 12.9146H30.9818Z" fill="#F6F6F6"/>
</mask>
<g mask="url(#mask0_1494_40200)">
<rect x="0.860352" y="34.4631" width="36.4613" height="137.006" transform="rotate(-90 0.860352 34.4631)" fill="#FE7028"/>
<rect x="0.186646" y="31.0933" width="21.4862" height="37.1126" rx="5.26106" transform="rotate(-90 0.186646 31.0933)" fill="#FF3724"/>
</g>
<path d="M132.163 0.0250047C132.993 0.0250047 133.661 0.699372 133.661 1.52427V38.2834C133.661 39.1144 132.987 39.7827 132.163 39.7827H81.8581C80.1733 39.7827 78.8074 38.428 78.8074 36.7481V3.05967C78.8074 1.38579 80.1733 0.0250047 81.8581 0.0250047H132.163Z" fill="#FE7028"/>
<mask id="mask1_1494_40200" style="mask-type:alpha" maskUnits="userSpaceOnUse" x="78" y="0" width="56" height="40">
<path d="M132.162 0.0250047C132.993 0.0250047 133.661 0.699372 133.661 1.52427V38.2834C133.661 39.1144 132.987 39.7827 132.162 39.7827H81.8579C80.1731 39.7827 78.8071 38.428 78.8071 36.7481V3.05967C78.8071 1.38579 80.1731 0.0250047 81.8579 0.0250047H132.162Z" fill="#2F308D"/>
</mask>
<g mask="url(#mask1_1494_40200)">
<path d="M120.507 10.0261L120.164 -4.9184L111.144 -4.71368L111.18 -3.29871L106.186 -4.24403L98.5437 36.2422L96.1489 -4.05738L87.141 -3.52149L90.0473 45.3763L99.0552 44.8404L99.0191 44.2504L105.963 45.563L111.613 15.6258L112.275 44.2564L121.295 44.0457L123.197 44.4069L132.283 -3.72019L123.419 -5.40009L120.507 10.0261Z" fill="#FF3724"/>
</g>
</svg>
